/* XPM */
static char *fc5806efb4e1418e95380c2e8f5dc02aqAhcxII4eQJOtAlu[] = {
/* columns rows colors chars-per-pixel */
"64 64 58 1 ",
"  c #2C2C2C",
". c gray33",
"X c black",
"o c #202020",
"O c #7C7C7C",
"+ c #484848",
"@ c gray55",
"# c gray44",
"$ c gray22",
"% c #646464",
"& c #5C4020",
"* c #885830",
"= c #E4D800",
"- c #E46C00",
"; c #744C28",
": c #80502C",
"> c #FC7800",
", c #FCFC7C",
"< c #905C34",
"1 c #BC7848",
"2 c #A86840",
"3 c #403018",
"4 c #543C1C",
"5 c #FCA85C",
"6 c gray11",
"7 c #A0643C",
"8 c #382C14",
"9 c #FC9840",
"0 c #9C4C00",
"q c #CC6000",
"w c #FC9C60",
"e c #FCB080",
"r c #6C4824",
"t c #FC8820",
"y c #9C9C00",
"u c #B47044",
"i c #FC4040",
"p c #C80000",
"a c #E00000",
"s c #FC0000",
"d c #880000",
"f c #A40000",
"g c #640000",
"h c #BC0000",
"j c #C0C0C0",
"k c #B00000",
"l c #580000",
"z c #EC0000",
"x c #400000",
"c c #980000",
"v c #D40000",
"b c #4C0000",
"n c #FC2020",
"m c #7C0000",
"M c #B4B4B4",
"N c #28200C",
"B c #FCF400",
"V c white",
/* pixels */
"                                                                ",
".......... X         o.OOOOOOOOOOOOOOOOO.+oo          @@@@@@@@@X",
"@@@@@@@O.+ X    +#@@#o.#@@@@@@@@@@@@@@@O+$o@@@O+o     @@######+X",
"@@##..++ XX   o+@@##.+o.O@#############.$oO@@@@O+oo    .......+X",
"@#...+ XX  ++%o@O####+o+O@#............+$.@###O%%X..o  $+.....+X",
"@#..+ XX $.O@@#o +#..++X+O%............$oO#...# X.@O. o ++....+X",
"@..+ XX $%@@OO@+o +...+o+##...........+$.@.... X.@O... o ++...+X",
"@.++XX $%@OO...@+X +..++X+#+++++++++++$oO#... X.@O..... Xo++..+X",
"@.+ X  %@O#.....O+X ++++o              X%%.. X.@O......$ Xo +++X",
"@++XX   .@.......O+X     XXXXXXXXXXXXXX   %+X.@O........  Xo XXX",
"++ X %@o ..#.....+#+X XXXXXXXXXXXXXXXXXXXX X.@O........ XXXoo   ",
"  X %@O@oo .....+.$  XXXXXXXXXXXXXXXXXXXXXX  +O...... XX%%+oo   ",
" o  @OOO@#X $.++.XXXXXXXXXXXXXXXXXXXXXXXXXXXXXXO...$XX.#OO%+oo  ",
"   %O#..O@#+X $$ XXXXXXXXXXXXXXXXXXXXXXXXXXXXXXXO$ X+#@O....$oo ",
"  $@O.....@@#XX XXXXXXXXXXXXXXXXXXXXXXXXXXXXXXXX XX#@@#....%+oo ",
"  +@O......O@.XXXXXXXXXXXXXXXXXXXXXXXXXXXXXXXXXXXX.@@#......+oo ",
"  %@O......+. XXXXXXXXXXXXXXXXXXXXXXXXXX&*XXXXXXX +O@#......+ o ",
"  %@O......+ XXXXXXX*==-;XXXX:>=,*:XXXX;-=<XXXXXXX #@#%......$o ",
"  %  .+++++. XXXXXX-=123XXXX:>=-43X:XXXX**=*XXXXXX +@O%..+++  o ",
" ooooX    + XXXXXX-=12XXXXXX455=*5=-:XXXXX*=*XXXXXX+++   XXXXX6o",
" %@@%.+$ XXXXXXXXX=12XXXXXXX47,*733X:XX3XXX>>XXXXXXXXXX.%OOO#.6o",
" %@OOO@@@# XXXXXX-=1XXXX::XXX>=7;3XXXXX3XXX*=*8XXXXXX#@@@O#%%+6o",
" %@#.....#.XXXXXX=-2XXXX<XXXX>-***;XXXX3XX8;>=8XXXX +#@##.... 6o",
" %@#......+XXXXXX=*4XXXX493349==55*;XX:3X88;>=8XXXX +#@#....+ 6o",
" %@#.....+$XXXXXX=<4XXXX:*9=,=====9;373XX88;>=8XXXX +#@#....+ 6o",
" %@#.....+ XXXXXX=<:XXXXX:*,,=====9;3XXXX88;>=8XXXX +#O#+++++ 6o",
" %@.++++++ XXXXXX=<8X8XXXX3*,-9999-;3XXXX88;>=8XXXX +.+       6o",
" ..        XXXXXX=<8X8XXXXX49-999903XXXXX84;>=8XXXXXXXXXXXXXXX6o",
" ooooXXXXXXXXXXXX=<8XX3XXXX49-qqqq00XXXXX440>=8XXXX +#@@@@@@O.6o",
" %@@@@@@@O.XXXXXX=<8X3XXXXX4-00000;0XXXXXX00>=8XXXX +#@#####.+6o",
" %@######+ XXXXXX=*4X:XXXXX4>0444;0;XXXX8001>=8XXXX +#@#..... 6o",
" %@#.....+ XXXXXX-=4X:XXXXX4-0344000XXXX401w>e8XXXo +#@#....+ 6o",
" %@#.....+ XXXXXXX=4X:3XXXX4*0X33r00XXXXX11>=;8XXXoo+#@#....+ 6o",
" %@#.....+ XXXXXXX=*33:XXXX*>0XXX40-XXXXX1w>=XXXXXo$+#@#....+ 6o",
" %@#.....+ XXXXXXX-=4X3XXXX*>0XXXX-tXXXXXw>>1XXXXXo$+#O#.++++ 6o",
" %@.++++++ XXXXXXXX-<33XXXX350XXXX-=XXXXX>>=XXXXXXX $.+       6o",
" ..        XXXXXXXX-*4XXXXX3=0XXX3-=XXXXX>=;XXXXXXXXXXXXXXXXXX6o",
" ooooXXXXXXXXXXXXXX8-433XX4===333=,==4XXX=;XXXXXXXo$+O@@@@@@O.6o",
" %@@@@@@@O.XXXXXXXXXX44XXX=3==y-,--=3-XXX;XXXXXXXXo$+#@######+6o",
" %@######. XXXXXXXXXXXXXu-iipipppp-p-pXXXXXXXXXXX6o$+#@#..... 6o",
" %@#.....+ XXXXXXXXXXXXaiispppppppppppdXXXXXXXXXX6 $+#@#....+ 6o",
" %@#.....+ XXXXXXXXXXXaispfdggggggdfpppdXXXXXXXXX6 $+#@#....+ 6o",
" %@#.....+ XXXXXXXXXXaispdgggXXXXXggdpppdXXXXXXXX6 $+#@#....+ 6o",
" %@.++++++ XXXXXXXXXhispdjj#XXjjjjjjj#ppklXXXXXXX6o$+#@#....+ 6o",
" ..        XXXXXXXXXzipfgjOoXXjOOOOOOodppdxXXXXXXXo$+#O#.++++ 6o",
" oooooXXXXXXXXXXXXXcispdgjOoXXjOoooooogvpfgXXXXXXXX $.+       6o",
" %@@@@@@@O.XXXXXXXXhipfgbjOoXXjOoXXXXXgappgxXXXXXXXXXXXXXXXXXX6o",
" %@######. XXXXXXXXvspfgXjOoXXjOoXXXXXXnppmxXXXXXXo$+#@@@@@@O.6o",
" %@#.....+ XXXXXXXXvspdgXjOjjjjO@MMMM#XnppdxXXXXXXo$+#@#####.+6o",
" %@.++++++ XXXXXXXXvspdgXjOOOOOOOOOOOoXippcxXXXXXXo$+#@#..... 6o",
" ..        XXXXXXXXkzpdgX#oooo@Oooo@OoXippdxXXXXXXo$+#@#.++++ 6o",
" ooooXXXXXXXXXXXXXXkapfgXXXXXXjOoXXjOoXippmxXXXXXXX $.+       6o",
" %@@@@@@@O.XXXXXXXXgapfgbXXXXXjOoXXjOognppgXXXXXXXXXXXXXXXXXXX6o",
" %@######. XXXXXXXXXhapmgjjjjjjOoXXjOodkpcgXXXXXXXo$+#@@@@@@O.6o",
" %@#.....+ XXXXXXXXXgppkgjOOOOOOoXXjOofppgxXXXXXXXo$+#@#####.+6o",
" %@#.....+ XXXXXXXXXXfppf#oooooooXX#ooppcgXXXXXXXXo$+#@#....+ 6o",
" %@.++++++ XXXXXXXXXXXcppfgggXXXXXgggpppgXXXXXXXXXo$+#@#....+ 6o",
" ..        XXXXXXXXXN8XcppvvpppppppszppgX8NXXXXXXXo$+#@.+++++ 6o",
" ooooXXXXXXXXXXXXXXXN88XcppaazzssszppcgX88NXXXXXXXX $.+       6o",
" O@@@@@@@O.XXXXXXXXN8888XXccpppppppccX88888NXXXXXXXXXXXXXXXXXX6o",
" O@....... XXXXBB55555555-&&&&&&&&&&&-555555550XXXo$+O@@@@@@O.6o",
" O@.++++++ XXXXB------------------------------rXXXo$+O@#..++++6o",
" ..        oXo 5rrrrrrrrrrrrrrrrrrrrrrrrrrrrrrr$ oX $.+         ",
"+++++++++++oo $+.%%##########################%%%.+ +++++++++++++"
};
