/* XPM */
static char *_dac231da0444f89d061ccbadc81a5e0xPd6JOU6FUEQgLTi[] = {
/* columns rows colors chars-per-pixel */
"176 32 8 1 ",
"  c #0000A4",
". c #2024FC",
"X c #4040FC",
"o c #5C60FC",
"O c #7C80FC",
"+ c #9C9CFC",
"@ c #B8BCFC",
"# c #D8D8FC",
/* pixels */
"                                                                                                                                                                                ",
"                                                                                                                                                                                ",
"      oo@@                                                                                                                              ####OO          ##                      ",
"      oo@@                                                                                                                              ####OO          ##                      ",
"    oo@@##@@        oo@@##        oo@@######oo    OO@@######oo      XX######        ############      @@++        ############OO      ########OO      ######                    ",
"    oo@@##@@        oo@@##        oo@@######oo    OO@@######oo      XX######        ############      @@++        ############OO      ########OO      ######                    ",
"  oo@@######@@      @@####        @@##########oo  @@##########      XX####++        ##@@########    @@##OO        ##############    ##@@OO######    ########@@                  ",
"  oo@@######@@      @@####        @@##########oo  @@##########      XX####++        ##@@########    @@##OO        ##############    ##@@OO######    ########@@                  ",
"  @@####OO####@@    ######        ##@@oo@@######  ##++XXoo####      oo####XX        ##++          XX@@##XX                ..####  ####@@  @@####  ####@@OO####OO                ",
"  @@####OO####@@    ######        ##@@oo@@######  ##++XXoo####      oo####XX        ##++          XX@@##XX                ..####  ####@@  @@####  ####@@OO####OO                ",
"  ######oo######    ######        @@XX  oo@@####  @@    oo####      OO##@@          ##++          ++####XX                ..##@@  ####@@  @@####  ####@@XX####@@                ",
"  ######oo######    ######        @@XX  oo@@####  @@    oo####      OO##@@          ##++          ++####XX                ..##@@  ####@@  @@####  ####@@XX####@@                ",
"  ######  ######    ######                @@####      oo@@##oo      @@##++  @@    oo##oo++@@@@OO  @@####  ##++          ..@@##oo  ######OO####    ####@@  ####@@                ",
"  ######  ######    ######                @@####      oo@@##oo      @@##++  @@    oo##oo++@@@@OO  @@####  ##++          ..@@##oo  ######OO####    ####@@  ####@@                ",
"  ######  ######    ######              XX####@@    OO####          @@##oo@@##    ++##########@@  @@##########++      ..@@##@@    OO########      ####@@  ######                ",
"  ######  ######    ######              XX####@@    OO####          @@##oo@@##    ++##########@@  @@##########++      ..@@##@@    OO########      ####@@  ######                ",
"  ######  ######    ######              ++####oo      @@####oo    XX##@@  ####    @@##++@@######  ######OO####@@      OO####OO      OO########    @@####OO######                ",
"  ######  ######    ######              ++####oo      @@####oo    XX##@@  ####    @@##++@@######  ######OO####@@      OO####OO      OO########    @@####OO######                ",
"  ######  ######    ######            XX####@@        oo++####oo  OO##++  ####    ##XX  oo######  ######  @@####    ..@@####oo      ####@@######  ++##########@@                ",
"  ######  ######    ######            XX####@@        oo++####oo  OO##++  ####    ##XX  oo######  ######  @@####    ..@@####oo      ####@@######  ++##########@@                ",
"  ######XX######    ######            ++####oo          oo######  @@##oo  ####            ######  @@####  @@####    ..######      ####OO  @@####    ++##  ####@@                ",
"  ######XX######    ######            ++####oo          oo######  @@##oo  ####            ######  @@####  @@####    ..######      ####OO  @@####    ++##  ####@@                ",
"  ++####oo######    ######          XX####@@              ######  ##############          ######  @@####  @@####    ++######      ####OO  @@####        XX####++                ",
"  ++####oo######    ######          XX####@@              ######  ##############          ######  @@####  @@####    ++######      ####OO  @@####        XX####++                ",
"  oo@@##@@######    ######          ++##@@oo        @@    ######          ####      ##    ####++  OO@@##OO@@####    @@######      ####@@  @@####        XX##@@XX                ",
"  oo@@##@@######    ######          ++##@@oo        @@    ######          ####      ##    ####++  OO@@##OO@@####    @@######      ####@@  @@####        XX##@@XX                ",
"    oo########@@    ######        XX####oo        @@##++  ####            ####    ####oo  ####      @@########      @@######      @@####@@@@####        OO##@@                  ",
"    oo########@@    ######        XX####oo        @@##++  ####            ####    ####oo  ####      @@########      @@######      @@####@@@@####        OO##@@                  ",
"      oo####@@oo    ######        ++############  oo######@@              ####    ######oo##++        @@####        ########      oo##########OO        @@##++                  ",
"      oo####@@oo    ######        ++############  oo######@@              ####    ######oo##++        @@####        ########      oo##########OO        @@##++                  ",
"        oo@@oo      ######        ##############    oo@@##                ####    oo######++            ##          ########        oo++####            ####XX                  ",
"        oo@@oo      ######        ##############    oo@@##                ####    oo######++            ##          ########        oo++####            ####XX                  "
};
