/* XPM */
static char *_3e9ae7a594c47f4a495117aad576a98G6uBlNFPqotCjXMx[] = {
/* columns rows colors chars-per-pixel */
"207 58 77 1 ",
"  c #000000",
". c #000400",
"X c gray2",
"o c #0F0207",
"O c gray4",
"+ c #120100",
"@ c #160000",
"# c #1D0000",
"$ c #1B020B",
"% c #170F0F",
"& c #111111",
"* c gray9",
"= c #1B1B1B",
"- c #240004",
"; c #2B0000",
": c #210109",
"> c #3C0001",
", c #320009",
"< c #370109",
"1 c #202020",
"2 c #232323",
"3 c #2A2A2A",
"4 c gray18",
"5 c #332E32",
"6 c #3C3C3C",
"7 c #490008",
"8 c #5F0007",
"9 c #54000B",
"0 c #5B000C",
"q c #650005",
"w c #6D000A",
"e c #7F0006",
"r c #740009",
"t c #7E000C",
"y c #443D44",
"u c #434343",
"i c gray30",
"p c #535353",
"a c gray36",
"s c #605052",
"d c #646464",
"f c gray42",
"g c #727272",
"h c #777777",
"j c #7B7B7B",
"k c #8C000A",
"l c #91000A",
"z c #92000E",
"x c #9E000C",
"c c #A10003",
"v c #AD0009",
"b c #B6000A",
"n c #BE0010",
"m c #C00004",
"M c #DF0006",
"N c #D0000B",
"B c #DE0009",
"V c #E00006",
"C c #E00009",
"Z c #E30009",
"A c #848484",
"S c #8B8B8B",
"D c #939393",
"F c gray61",
"G c #90A19D",
"H c #929EA4",
"J c #A9A9A9",
"K c gray72",
"L c gray",
"P c gray78",
"I c gray81",
"U c gray86",
"Y c gainsboro",
"T c #E6E6E6",
"R c #EFEFEF",
"E c #FBFBFB",
"W c white",
/* pixels */
"             3jhhhhhhhhhhhhhhhhhjp    pjhhhhhhhhhhhhhhhhgh2 XX                    ihhhhhhhhhhhhhhhhhhh4   Odjhhhhhhhhhhhhhhhhhf  X                  X  fhhhhhhhhhhhhhhhhhhfO   4ghhhhhhhhhhhhhhhhhji           ",
"            3WWWWWWWWWWWWWWWWWWWWWA  SWWWWWWWWWWWWWWWWWWWWW= X                   AWWWWWWWWWWWWWWWWWWWWW6  UWWWWWWWWWWWWWWWWWWWWP                      PWWWWWWWWWWWWWWWWWWWWY  6WWWWWWWWWWWWWWWWWWWWWA          ",
"            fW633333333333333333*UP  IU=33333333333333333uWd                     LT=33333333333333332uWg  WD23333333333333334=FW*                    &WF=4333333333333333=SW  gWu33333333333333333=TL          ",
"            fW=                  UI  UI                  2Wf                  XX PU                  3Wg  Wj                  AW*                    &WA                  jW  gW3                  UP X        ",
"       X    fW= X                UI  II                  2Wf  X  XXX      X      LU                  3Wg  WA                  SW*     X         X    &WS                  jW  gW4                  YP  X   X   ",
"      X     fW2                  UI  II                  2Wf     XX      X       LT                  3Wg  WA                  AW&     X        X     OWS                  AW  gW4                  YL      X   ",
"       &uuu6AW2                  UI66UI                  2WAuuuu& X      X  3uuu6IT                  3WSuuWA                  SWuuuu6            6uuuuWS                  AW6uSW3                  UI6uuu3  X  ",
"      4WWWWWWW=         .        UWWWWI     .       .    3WWWWWWE4 X     X AWWWWWWT                  4WWWWWA   .   .  ..   .  SWWWWWWI          IWWWWWWS      .X      .   AWWWWW4 ..               TWWWWWWA    ",
"      SWpiiipp&32333&#--:-@#----+uppiiu+---::+----:+:::--%piiiipWA       X TIuiiiiu*33332+--:-$+:----%iippp3#----@$--::#@----#4piiiiDW2        2WSipiip423333=@----$@-:--#3pppii&-----$$----@#-:--@uiiiiuIT    ",
"      DE      iWEWWWsmCCBCrvVBBCt      tBCVBNrZCBMNwNBCBN7      WS         TK      JWWWWR9BVBBNqNMBVN7      vVBBClxBBCCvtBBBBb+     dW4        3Wd      RWWWWJkCBBVvtBBBVb+     ;NCBBNrnVCBBkvBBBBl      KT    ",
"      DEX     pWWWWWsNVVCVrvVBCCk.     tCCCCNwBVCCN8BCCVB7     OWS         TK      JWWWWR9BCMMNqNVBCB7      bVCVBlxVZCVctCVBBm+ X   dW4        3Wd   X  EWWWWKkZCBVvtVCBVN@  .  ,BVVCNwmMCBCwvVCBVk  .   KT    ",
"      DEX     pWWWWWsNVCCVrvVCCZk.     tCCCCmqCCCCN0BVVCB7X    OWS         TK      JWWWWR9MCMVNqNVMCC7      bVCVClxVCCVctCVCCm+     dW4        3Wd      EWWWWKkZCBVvtVCBVN+    .,BVVCNwmVCBVrvVCBVkX     KT    ",
"      DEX     pWWWWWsNZVCVrvVBCZk.     tCCCCmqCCCBN0BMVVB7X    OWS         TK      JWWWWR9MCVVNqNVVCC7      bVCVClxVCCVctZCBCm+     dW4        3Wd      EWWWWKkCCCVvrVCVVN+    .<BBCCNrbVCCCrvVCBVkX     KT    ",
"      DEX     pWWWWWsNVCZZtbZZZVl.  X .lVCZZNrCCCCNqCBZCB9     OWS         TK    X JWWWWR0VCZCNwNCCCC9    . nCZZZlcZCCCvkZCZCm@     dW4        3Wd      EWWWWKlCCZZvkCCZCN+ .. .<CBCZVrbCCZZtvVZCCk..  . KT    ",
"      DEX     2jghhj3qqqqq,9qqqq<X.. . <qqqq9,qqqqq;qqqwq-X    OWS         TK      phhhhg-qqqq8,qqqwq#X .  X9qqqq>7qqqq7,qqqq0+     dW4        3Wd      ghghhp>rqqq7<qwqqqX .   +qq8qw<qqwqw<7qqqq> X.X  KT    ",
"      DEX     iERRREpbBBNNtvBBBNkxBBBBxtNBNCmqCNNNbqNNNCN7     OWS         TK    X FERRRT9BCCBbqbVNBNqbVBBBtvNBBNkxBBBBxtBBNBb+     dW4        3Wd      RERREJkBBBBvtNCNVbrBBBBNqNCBBNqnBNCCrvBBCBk.     KT    ",
"      DEX     pWWWWWsNVVCVrvVBCVkxCVCVveMBBBmrVCBBN8MVVVB7     OWS         TK      JWWWWR9MCVVNqNVCVCqNCZVCtbZVVClxVCCVckBVCCm+     dW4        3Wd      EWWWWKkZCBVvtVVBCNwBBCCBqBVVCNwmVCCZrvVZBVkX     KT    ",
"      DEX     pWWWWWsNVVCVrvMMCVkxZVCZvkBBMBbqVVCBN8BVVVB7     OWS         TK      JWWWWR9BBMVNqNVCVVqmMVVCtbZVVClxVCCVctCVBCm+     dW4        3Wd      EWWWWKkZBBVvtVVBBNwCBBCNqBVVCNwmVVCCrvVCBMkX     KT    ",
"      DEX     pWEWWWsmVBBBrvVCCCkxVVCCvkCCBBNqBBBCNqBCVVB7     OWS         TK      JWWWWR9MMBCNqNZCCVqbMCCVtbZVVBlxZMBMxtCCCCb+     dW4        3Wd      EWWWWKkZCBVvtCCBBNqMCCCN8BBBZNqnVVVVrvZCBCk      KT    ",
"      DEX     pWWWWWsNCBCCkvCCZCkxVVBZvkBCCCNwMMZCNwCCVMB7     OWS         TK    X JWWWWR9MMCBNrNCCCCqNMCCVkbZVMCxcZMMMxeCVCZm#     dW4        3Wd   X  EWWWWKlVZZZvkBCBMNrMCZZBrBBBZBrNZZZVtvVZCCk    . KT    ",
"      DEX     6GGGGG5reetk7qkkee9qkkkk87kkkkw>kkkkr<kkeer;X    OWS         TK      dGHHGD,tkkkr>kkkek<rkkkk7wkkkk7qktekq7kekkw+.    dW4        3Wd   .  HHHGGg9tkkkq7keekw7kkkkr<eekkk7qkkel7qkkkk9. . X KT    ",
"      DEX     <bmmmb8vmmbmqzbmmbrkbmbmkwbvmmv8mmbmv9mmbbb>     OWS         TK      qbmmmc8mmbmb0bbbbbqvbbbmqxmvbbkkmmbmlwmbmbv+     dW4        3Wd    . xmmmbktmbmblwmbbmvqbbbbb8bbmbb8xmmvbqkbmbmr      KT    ",
"      DEX     >NVVVCqNVCVMrmVVVVkxZVMVveMZVZNwVCBBNqBZVCB7X    OWS         TK      kVVCVmwBMVMNwNVVVBqNZZVZkbZCVMlxVZCZveVCCCm+     dW4        3Wd   .  bCCVZllVVVVvkVVVCNqMBMZB8BVVZVwbVZVMrvVZCVk.     KT    ",
"      DEX     <NVMVBqNVBVVrvVVVZkxZVVZvtMVVZNqCCCBN8CCVBB7     OWS         TK    X rVVZVmqBMBMNqNVVVBqmCVVVrbCCMMlxVVCZvtCCBCm+     dW4        3Wd      bCCVZllVVVVvrVVVBNwMMMCB8BBCZNrbVBMMrvVCCVkX     KT    ",
"      DEX     <NBBBBqNBBVVrvMCCVkxZVBZveBCBCNqZBCCNqBMBBB7X    OWS         TK     .rCCBBmqCCBCNqNZCBCqmZBCCkvMMMClxZCCCvtVBCCm+     dW4        3Wd      vZCBVllCCCZbtBBCCNqBBBBN8BMBBNwmZBZBrvVBCVk.     KT    ",
"      DEX     >BCZZBqNBBCVrvCCZCkxCZBZvwBCBBNwZBZZNqBMMBB7     OWS         TK    X.rCBVZbwCZCCNwNZVZCqmZBMCkvBMMZzxZBZCctZZZBm@     dW4        3Wd   X..vCCZZllZCCVxtMBCBmwCBZCBqBCBZBrmZZZZtvCZCZk   X  KT    ",
"      DE      ;xvbvv0lcccc8eccccqrcccck8ccccl9ccccx7vvvvv>      WS         TK      qvvvvl9xcccl9lcccc9lcccx8kxxccwwccccrqbvvvx      aW4        3Wa      kvvvbrwcccckqxccclqxcccx7xcccx9zcccc0kvcvbw      KR    ",
"      gWPLLLLP*     oxcccc0eccccqrcccck8ccccl9ccccx-X    =PLLLLLWf       X PEKLLLLJ    ..<vcccl9lcccc9lccccqkxxccwwcxccr      dLLLLLUW*        &WULLLLPd  .  .qccccrqccccl0ccccx7xcccc9lxxcc7.  .  FLLLLKEP X  ",
"       JTTTTTW2 X  .$NCCCCrvZCZZkxCZBCvrBCBBNwZCVVN;     3WRTTUTJ        X 4ITTTUEU     .9BZCZNqNZBZCqmZCBCrvCCBZlcCCCZv      SWTTTTUf          fUTTTTWS    . zVCBZctZCCMbwBBCCBqBBCZCrmZZZZwX.  . YETTTTI4 X  ",
"            dW=    .#NCCBCrvVCCVkxZVBCvkBCBCNqZBBCN;     3Wd      X       X      LT    X.9BCBZNqNBBBCqmZBCZkbZBCZlxCBCCc      SW      X        X      WS    ..zZBZCvtBCCVNqBBCBNqBBBBNrmZBZZq      TL      XX  ",
"            gW=     $NVCCCrvVCCZkxZVCZvrCCCCNwCCVBN;.    2Wf                     LT     .9BVVVNqNVCVBqmCVVZtbZCVBzxCCVVv.     AW*                    &WS      lZBBCvtCCBCNrBBVCBqBBMCNwnBZBZw.     UP          ",
"            gW2     $NVCZCrmVCZZkxZVZZvkZZZZNwZZVCN;.    2Wf X                   LT     .9CVVVNwNVZVBqNZZVZtbZZCCzcCCVVv.     AW*                    &WS      lCZZCvtBVCZNwVCZCC8BMMZBwmBZZZw.     UP          ",
"            gW&     @nNbNNqcbbbbrkbmvblrmmvbvqNNbmb;     *Wf X                 X LU      7bNmNb8vmvbb9vbbmmrxmbbmekNbmNl      AW*                    &WA      tbmNNxrmmmmvqbbbmb8bmbmbwvNmbN8      UP          ",
"            aWFDDDDF4    .Xqkkke7qkkekq7kkekr..    6FDDDDJWp X                XX KEDDDDDS    ..:rkkkl>rkeek7wekke8      fFDDFDIEX                     EIDFDDFf X ..X>eeeer>ekktr,ekket<.    .SDDDDDEK          ",
"             KWWWWWWp X X obVZCZkxMMBBvkMBBMN XXXX aWWWWWEJ  X                X  4UWWWWWRO XX X>VCCCMwNVBBBkbVZZBl.XXX  KWEWWWRf X                  X fRWWWEWK  XXX tCCCVNrBBMZBrMCCVC8 . X XEWWWWWU4          ",
"                  4Wp     .vCCCCkxVMBMveMMBMN      aW4                                 DE      >NCCCMqmVBBBtbVVBCl    X KT      X                           TK X   .rCCBCNwBMMBN8NCCCB9      ED                ",
"                  6Wp     .vVCCVkxZVVZvkCCCVN      aW4                                 FE      >NZCVMqbCVMCtbCVVVl      KR                                  TK     .rBVBCNwCBBZN8BMMCB9      EF                ",
"                  6Wp     .nVCCVkxZVCVvkCCCMN      aW4                                 FE      >NCCBBqNCMBCkbCVVVl      KR                                  TK     .rVVBCNwCBBBB8BMMCB9      EF                ",
"                  6Wi      vCBBBkxNNNNxtBBBBn      pW4                                 FE      >NCBBMqbNBNMkvBNBBl      KT                                  TK      wBBCVbqNBNNNqNBBBN8      RF                ",
"                  3WDfgggh6 X    7qwqq7      6hgggfFW2                                 SWgggggg*    .oqqqqq< .. X aggggfIT                                  TIfggggd X  . -qqqqq$  .  &ggggghWS                ",
"                 X LWWWWWWA .X...xZVZVb.X    AWWWWWWK                                  3RWWWWWW4 X   -NVCZZr XX   YWWWWWWd                                X dWWWWWWY   .X 8CCZCC<.  . 3WWWWWWR3                ",
"                     &***WA    . xVVCCv.     AW&&**  X                                   &**OgW3     -NVVVZr      YI ***                                      *&* PY      0BCVVB<     3WgO**&                  ",
"                         WA    . xVVBZv.     AW     X                                  X     fW3     -NVVVZr      YP                                              PY      0CCVCB<     2Wg                      ",
"                      X XWj      xVVCZv      AWX   X                                    X    fW3     -NVVCZr      UP  X                                      X X  LU    . 0MBBBB<     2Wf                      ",
"                        XWj      xCZCCv      AWO                                             fW2     -NCCBCw      UP                                              PY      0CMBBB<     =Wg                      ",
"                      X  WF6uuuu4#;;;;#5uuuu6JW                                              fWauuuuu*-;;;;@yuuuu6TP                                              PT6uuuuu+;;;;;*uuuuuaWf                      ",
"                         KWWWWWWJ  .   KWWWWWWJ                                              =RWWWWWWi   .  EWWWWWWd                                            X dWWWWWWW      iWWWWWWR=                      ",
"                          6iiiuRJ    X JRuiii6                                                 iiiihWi      EKuiii2  X                                          X  =iiiuKE      uWhiiii  X                     ",
"                               RJ      KT                                                    X     uWi      EF      X                                            X      FW      uWu     X                      ",
"                         X X   RJ    X JT                                                    X     uWi X    EF XX X X                                           X  X    FE      uWu     X                      ",
"                               RJ      JT                                                          uWi      EJ XX                                                     X FE      uWu                            ",
"                               RK*2222&KT                                                          uWa=2222=EF                                                          FE=2222=aWu                            ",
"                               JWWWWWWWWJ                                                           RWWWWWWWWp                                                          pWWWWWWWWR                             ",
"                                djhhhhjd                                                          X =jhhhhhju                                                            uhjhhhhj= X                           ",
"                                         X                                                         X         X                                                                    XX                           ",
"                                                                                                                                                                                                               ",
"                                                                                                                                                                                                               ",
"                                                                                                                                                                                                               "
};
