/* XPM */
static char *_6353a21858f405ae461d8b087a79264QVBH2uOun6dt8YgI[] = {
/* columns rows colors chars-per-pixel */
"105 118 41 1 ",
"  c black",
". c #202020",
"X c #2C2C2C",
"o c gray22",
"O c #404000",
"+ c #585400",
"@ c #706C00",
"# c #004040",
"$ c #005858",
"% c #006C6C",
"& c #007070",
"* c #007474",
"= c #007878",
"- c #007C7C",
"; c #484848",
": c gray33",
"> c #646464",
", c gray44",
"< c #7C7C7C",
"1 c #848400",
"2 c #9C9C00",
"3 c #B4AC00",
"4 c #CCC400",
"5 c #E4D800",
"6 c #FCF400",
"7 c #008484",
"8 c #008C8C",
"9 c #009898",
"0 c #00A4A4",
"q c #20B0B0",
"w c #20B4B4",
"e c #48C0C0",
"r c #74C8C8",
"t c gray55",
"y c #989898",
"u c gray66",
"i c #B4B4B4",
"p c #9CDCDC",
"a c #B8E8E8",
"s c #C0C0C0",
"d c #D0D0D0",
/* pixels */
"qqqqqqqq--##&&qqqqqqqqqq--##&&qqqqqqqqqq--##&&wwwweeeeqq--##&&eeeeeeqqqq--##&&qqqqqqqqqq--##&&qq998888998",
"qqqqqqqq==--88qqqqqqqqqq==--88qqqqqqqqqq==--88wweerrppqq==--88eeeeqqqqqq==--88qqqqqqqqqq==--8899888888998",
"qqqqqqqq==--88qqqqqqqqqq==--88qqqqqqqqqq==--88wweerrppqq==--88eeeeqqqqqq==--88qqqqqqqqqq==--8899888888998",
"$$$$$$$$$$$$$$$$$$$$$$$$$$$$$$$$$$$$$$$$$$$$$$$$$$$$$$$$$$$$$$$$$$$$$$$$$$$$$$$$$$$$$$$$$$$$$$$$$$8899998",
"$$$$$$$$$$$$$$$$$$$$$$$$$$$$$$$$$$$$$$$$$$$$$$$$$$$$$$$$$$$$$$$$$$$$$$$$$$$$$$$$$$$$$$$$$$$$$$$$$$8899998",
"&&&&&&&&&&&&&&&&&&&&&&&&&&&&&&&&&&&&&&&&&&&&&&&&&&&&&&&&&&&&&&&&&&&&&&&&&&&&&&&&&&&&&&&&&&&&&&&&$$8899998",
"&&&&&&&&&&&&&&&&&&&&&&&&&&&&&&&&&&&&&&&&&&&&&&&&&&&&&&&&&&&&&&&&&&&&&&&&&&&&&&&&&&&&&&&&&&&&&&&&$$8899998",
"8888888888888888888888888888888888888888888888888888888888888888888888888888888888888888888888&&$$9977aa8",
"8888888888888888888888888888888888888888888888888888888888888888888888888888888888888888888888&&$$9977aa8",
"000000000000000000000000000000qqqqqqqqwwwwwwwwwweewweewweewweewwwwwwwwqqqqqq000000000099999988&&$$--&&778",
"000000000000000000000000000000qqqqqqqqwwwwwwwwwweewweewweewweewwwwwwwwqqqqqq000000000099999988&&$$--&&778",
"00000000000000000000000000qqqqqqqqqqwwwwwwwwwweewweewweewweewwwwwwwwqqqqqq00000000009999999988&&$$==--888",
"00000000000000000000000000qqqqqqqqqqwwwwwwwwwweewweewweewweewwwwwwwwqqqqqq00000000009999999988&&$$==--888",
"0000000000000000000000qqqqqqqqqqwwwwwwwweewweewweewweewweewwwwwwwwqqqqqq0000000000990099999988&&$$9900008",
"0000000000000000000000qqqqqqqqqqwwwwwwwweewweewweewweewweewwwwwwwwqqqqqq0000000000990099999988&&$$9900008",
"000000000000000000qqqqqqqqqqwwwwwwwwwweewweewweewweewweewwwwwwwwqqqqqq00qq00000099009999888888&&$$9900008",
"000000000000000000qqqqqqqqqqwwwwwwwwwweewweewweewweewweewwwwwwwwqqqqqq00qq00000099009999888888&&$$9900008",
"000000000000qqqqqqqqqqqqwwwwwwwweewweewweewweewweewweewwwwwwwwqqqqqq00qq0000009900999988888888&&$$9900qq8",
"000000000000qqqqqqqqqqqqwwwwwwwweewweewweewweewweewweewwwwwwwwqqqqqq00qq0000009900999988888888&&$$9900qq8",
"00000000qqqqqqqqqqqqwwwwwwwwwweewweewweewweewweewweewwwwwwwwqqqqqq00qq000000990099999999888888&&$$0000qq8",
"00000000qqqqqqqqqqqqwwwwwwwwwweewweewweewweewweewweewwwwwwwwqqqqqq00qq000000990099999999888888&&$$0000qq8",
"0000qqqqqqqqqqqqwwwwwwwwwwwweewweewweewweewweewweewwwwwwwwqqqqqq00qq00000099009999999988888888&&$$00qqqq8",
"0000qqqqqqqqqqqqwwwwwwwwwwwweewweewweewweewweewweewwwwwwwwqqqqqq00qq00000099009999999988888888&&$$00qqqq8",
"qqqqqqqqqqqqqqwwwwwwwwwwwweewweewweewweewweewweewwwwwwwwqqqqqq00qq0000009900999999998888888888&&$$9977aa8",
"qqqqqqqqqqqqqqwwwwwwwwwwwweewweewweewweewweewweewwwwwwwwqqqqqq00qq0000009900999999998888888888&&$$9977aa8",
"qqqqqqqqqqwwwwwwwwwweewweewweewweewweewweewweewwwwwwwwqqqqqqqqqq000000000099999999888888778888&&$$--&&778",
"qqqqqqqqqqwwwwwwwwwweewweewweewweewweewweewweewwwwwwwwqqqqqqqqqq000000000099999999888888778888&&$$--&&778",
"qqqqqqwwwwwwwwwwwweewweewweewweewweewweewweewwwwwwwwqqwwqqqqqq00000000009999999988888888778888&&$$==--888",
"qqqqqqwwwwwwwwwwwweewweewweewweewweewweewweewwwwwwwwqqwwqqqqqq00000000009999999988888888778888&&$$==--888",
"qqwwwwwwwwwwwwwweewweewweewweewweewweewweewwwwwwwwqqwwqqqqqq0000000000990099998899888877888888&&$$0000qq8",
"qqwwwwwwwwwwwwwweewweewweewweewweewweewweewwwwwwwwqqwwqqqqqq0000000000990099998899888877888888&&$$0000qq8",
"wwwwwwwwwwwwwweewweewweewweewweewweewweewwwwwwwwqqwwqqqqqq000000000099009999889988888877888888&&$$00qqqq8",
"wwwwwwwwwwwwwweewweewweewweewweewweewweewwwwwwwwqqwwqqqqqq000000000099009999889988888877888888&&$$00qqqq8",
"wwwwwwwwwwwweewweewweewweewweewweewweewweewwwwqqwwqqqqqq00000000009900999988998888888888888888&&$$00qqqq8",
"wwwwwwwwwwwweewweewweewweewweewweewweewweewwwwqqwwqqqqqq00000000009900999988998888888888888888&&$$00qqqq8",
"wwwwwweewweewweewweewweewweewweewweewweewwwwqqwwqqqqqq00qq000000990099999999888888887788888888&&$$qqqqqq8",
"wwwwwweewweewweewweewweewweewweewweewweewwwwqqwwqqqqqq00qq000000990099999999888888887788888888&&$$qqqqqq8",
"wwwweewweewweewweewweewweewweewweewweewwwwqqwwqqqqqq00qq00000000009999999988888888778888888888&&$$qqqqqq8",
"wwwweewweewweewweewweewweewweewweewweewwwwqqwwqqqqqq00qq00000000009999999988888888778888888888&&$$qqqqqq8",
"wweewweewweewweewweewweewweewweewweewwwwqqwwqqqqqq00qq0000000000999999998899888877888888889988&&$$9977aa8",
"wweewweewweewweewweewweewweewweewweewwwwqqwwqqqqqq00qq0000000000999999998899888877888888889988&&$$9977aa8",
"eewweewweewweewweewweewweewweewweewwwwqqwwqqqqqq00qq000000000099999999889988887788888888888888&&$$--&&778",
"eewweewweewweewweewweewweewweewweewwwwqqwwqqqqqq00qq000000000099999999889988887788888888888888&&$$--&&778",
"wweewweewweewweewweewweewweewweewwwwqqwwqqqqqq00qq00000000009999999988998888778877888888889988&&$$==--888",
"wweewweewweewweewweewweewweewweewwwwqqwwqqqqqq00qq00000000009999999988998888778877888888889988&&$$==--888",
"eewweewweewweewweewweewweewweewwwwqqwwqqqqqqqqqq0000000000990099998899888877887788888888998888&&$$0000008",
"eewweewweewweewweewweewweewweewwwwqqwwqqqqqqqqqq0000000000990099998899888877887788888888998888&&$$0000008",
"wweewweewweeuuddddddddddddddssssqqwwqqqqqqqqqq000000000099009999889988887788778888888888889988&&$$qq00008",
"wweewweewweeuuddddddddddddddssssqqwwqqqqqqqqqq000000000099009999889988887788778888888888889988&&$$qq00008",
"eewweewweeqq<<>>,,,,<<<<ttyyuusswwqqqqqqqqqq00000000009900999999998888888877887788888888998888&&$$0000998",
"eewweewweeqq<<>>,,,,<<<<ttyyuusswwqqqqqqqqqq00000000009900999999998888888877887788888888998888&&$$0000998",
"335566eeqq--XX>>oouu,,<<::ddyyiiqqqqqqqqqq0000000000990099999999889988887788778888888899889988&&$$0099778",
"335566eeqq--XX>>oouu,,<<::ddyyiiqqqqqqqqqq0000000000990099999999889988887788778888888899889988&&$$0099778",
"++1166ww00--XX>>>>>>,,,,<<<<ttiiqqqqqqqq00qq00000099009999999988998888778877887788888888999988&&$$0088--8",
"++1166ww00--XX>>>>>>,,,,<<<<ttiiqqqqqqqq00qq00000099009999999988998888778877887788888888999988&&$$0088--8",
"OO1155rr88--XX>>>>>>>>,,,,<<<<iiqqqqqq00qq0000000000999999998899888877887788778888888899889988&&$$88==ee8",
"OO1155rr88--XX>>>>>>>>,,,,<<<<iiqqqqqq00qq0000000000999999998899888877887788778888888899889988&&$$88==ee8",
"OO1155ee88--XX>>>>>>>>>>,,,,<<uuqqqq00qq000000000099999999889988887788778877887788889988999988&&$$--%%==8",
"OO1155ee88--XX>>>>>>>>>>,,,,<<uuqqqq00qq000000000099999999889988887788778877887788889988999988&&$$--%%==8",
"OO1155ee88--XX::;;11444466,,,,uuqq00qq00000000009999999988998888888877887788778888888899999988&&$$==--888",
"OO1155ee88--XX::;;11444466,,,,uuqq00qq00000000009999999988998888888877887788778888888899999988&&$$==--888",
"OO1144ee88--XX;;XX@@    44>>,,uu00qq0000000000990099998899888888887788778877888888889988999988&&$$----998",
"OO1144ee88--XX;;XX@@    44>>,,uu00qq0000000000990099998899888888887788778877888888889988999988&&$$----998",
"OO1144ee88--XXooXX@@    44>>>>uuqq000000000099009999889988998888778877887788778888998899999988&&$$--88998",
"OO1144ee88--XXooXX@@    44>>>>uuqq000000000099009999889988998888778877887788778888998899999988&&$$--88998",
"OO1144ee88--XXXXXX++XXXX44>>>>uu00000000009900999999998899888877887788778877888888889999999988&&$$7788008",
"OO1144ee88--XXXXXX++XXXX44>>>>uu00000000009900999999998899888877887788778877888888889999999988&&$$7788008",
"OO1133ee88--XXXXXX++++@@11>>>>uu00000000990099999999889988887788778877887788888888998899999988&&$$7788008",
"OO1133ee88--XXXXXX++++@@11>>>>uu00000000990099999999889988887788778877887788888888998899999988&&$$7788008",
"OO1133ee88--XXXXXXXXXXXXXX>>>>yy00000099009999999988998888778877887788778888888899889999999988&&$$8899qq8",
"OO1133ee88--XXXXXXXXXXXXXX>>>>yy00000099009999999988998888778877887788778888888899889999999988&&$$8899qq8",
"OO1122ee88--XXXXXXXXXXXX;;>>>>yy00009900999999998899888888887788778877887788888888999999999988&&$$88--pp8",
"OO1122ee88--XXXXXXXXXXXX;;>>>>yy00009900999999998899888888887788778877887788888888999999999988&&$$88--pp8",
"**OO@@ww88--XXoooo;;;;::>>>>>>yy00000099999999889988888888778877887788778888888899889999999988&&$$--&&--8",
"**OO@@ww88--XXoooo;;;;::>>>>>>yy00000099999999889988888888778877887788778888888899889999999988&&$$--&&--8",
"==77wwww88--XXoo..,,::>>XXtt>>tt00009900999988998888888877887788778877888888889988999999990088&&$$==--888",
"==77wwww88--XXoo..,,::>>XXtt>>tt00009900999988998888888877887788778877888888889988999999990088&&$$==--888",
"77wwwwww88--XXXXoo::::::>>>>>>tt00990099998899889988887788778877887788888888888899999999999988&&$$7799008",
"77wwwwww88--XXXXoo::::::>>>>>>tt00990099998899889988887788778877887788888888888899999999999988&&$$7799008",
"wwwwwwqq88--XXXXXXXXXXXXXXXXXX>>99009999999988998888778877887788778877888888889988999999990088&&$$8899008",
"wwwwwwqq88--XXXXXXXXXXXXXXXXXX>>99009999999988998888778877887788778877888888889988999999990088&&$$8899008",
"wwwwwwqq88--------------------9900999999998899888888887788778877887788888888998899999999009988&&$$9900qq8",
"wwwwwwqq88--------------------9900999999998899888888887788778877887788888888998899999999009988&&$$9900qq8",
"wwwwqqqq88888888888888888888000099999999889988888888778877887788778888888899889999999999990088&&$$9900qq8",
"wwwwqqqq88888888888888888888000099999999889988888888778877887788778888888899889999999999990088&&$$9900qq8",
"wwqqqqqqqqqqqqqq00qq00000000009999999988998888888877887788778877888888888888998899999999009988&&$$0000qq8",
"wwqqqqqqqqqqqqqq00qq00000000009999999988998888888877887788778877888888888888998899999999009988&&$$0000qq8",
"qqqqqqqqqqqqqq00qq0000000000999999998899888888887788778877887788778888888899889999999999990088&&$$9977aa8",
"qqqqqqqqqqqqqq00qq0000000000999999998899888888887788778877887788778888888899889999999999990088&&$$9977aa8",
"qqqqqqqqqqqq00qq000000000099999999889988888888778877887788778877888888889988999999999999000088&&$$--&&778",
"qqqqqqqqqqqq00qq000000000099999999889988888888778877887788778877888888889988999999999999000088&&$$--&&778",
"qqqqqqqqqq00qq00qq0000009900999988998899888877887788778877887788888888888899889999999900990088&&$$==--888",
"qqqqqqqqqq00qq00qq0000009900999988998899888877887788778877887788888888888899889999999900990088&&$$==--888",
"qqqqqqqq00qq00qq000000990099998899889988888888778877887788778888888888889988999999999999000088&&$$0000qq8",
"qqqqqqqq00qq00qq000000990099998899889988888888778877887788778888888888889988999999999999000088&&$$0000qq8",
"qqqqqq00qq00qq00000099009999999988998888888877887788778877887788888888998899999999999900990088&&$$0000qq8",
"qqqqqq00qq00qq00000099009999999988998888888877887788778877887788888888998899999999999900990088&&$$0000qq8",
"qqqq00qq00qq0000009900999999998899888888887788778877887788778888888888889988999999999999000088&&$$0000qq8",
"qqqq00qq00qq0000009900999999998899888888887788778877887788778888888888889988999999999999000088&&$$0000qq8",
"qq00qq00qq00qq00990099999999889988888888778877887788778877888888888888998899999999999900000088&&$$0000qq8",
"qq00qq00qq00qq00990099999999889988888888778877887788778877888888888888998899999999999900000088&&$$0000qq8",
"00qq00qq00qq0000009999999988998888888877887788778877887788888888888899889999999999990099000088&&$$00qqqq8",
"00qq00qq00qq0000009999999988998888888877887788778877887788888888888899889999999999990099000088&&$$00qqqq8",
"qq00qq00qq000000999999998899888888887788888877887788778877888888889988998899999999999900000088&&$$9977aa8",
"qq00qq00qq000000999999998899888888887788888877887788778877888888889988998899999999999900000088&&$$9977aa8",
"00qq00qq00000099999999889988888888888888887788778877887788888888888899889999999999990099000000==$$--&&778",
"00qq00qq00000099999999889988888888888888887788778877887788888888888899889999999999990099000000==$$--&&778",
"rrrrrrrrrrrrrrrrrrrrrrrrrrrrrreeeeeewwwwqq00000000qqwweeeeeeeeeeeeeeeeeeeeeeeewwwwwwwwwwwwwwww--$$==--888",
"rrrrrrrrrrrrrrrrrrrrrrrrrrrrrreeeeeewwwwqq00000000qqwweeeeeeeeeeeeeeeeeeeeeeeewwwwwwwwwwwwwwww--$$==--888",
"aaaaaaaaaaaaaaaaaaaaaaaaaaaaaapppppppprrrreeeeeerrrrpppppppppppppppppppppppppppppppprrrrrrrree88--0000qq8",
"aaaaaaaaaaaaaaaaaaaaaaaaaaaaaapppppppprrrreeeeeerrrrpppppppppppppppppppppppppppppppprrrrrrrree88--0000qq8",
"qqqqqqqqqq000000009999999999999999887777----------7788889999999999990000qqqqqqqqqqqqqqqqqqqqqqqqqqqqqqqq8",
"qqqqqqqqqq000000009999999999999999887777----------7788889999999999990000qqqqqqqqqqqqqqqqqqqqqqqqqqqqqqqq8",
"qqqqqqqq9977aa009999999999&&ww99887777--==&&99----77889999&&ww99999900qq9977aaqqqqqqqqqq9977aaqqqqqqqqqq8",
"qqqqqqqq9977aa009999999999&&ww99887777--==&&99----77889999&&ww99999900qq9977aaqqqqqqqqqq9977aaqqqqqqqqqq8",
"qqqqqqqq--&&779999999999--##&&887777----&&##$$--77778899--##&&99990000qq--&&77qqqqqqqqqq--&&77qqqqqqqqqq8",
"qqqqqqqq--&&779999999999--##&&887777----&&##$$--77778899--##&&99990000qq--&&77qqqqqqqqqq--&&77qqqqqqqqqq8",
"qqqqqqqq==--889999999999==--88887777----&&&&==7777889999==--88999900qqqq==--88qqqqqqqqqq==--88qqqqqqqqqq8"
};
