/* XPM */
static char *_4228e84b5c34dd5cc531e698b536442lamQ4XbPPi8C7UAj[] = {
/* columns rows colors chars-per-pixel */
"108 128 44 1 ",
"  c #000000",
". c black",
"X c #202020",
"o c #2C2C2C",
"O c gray22",
"+ c #004040",
"@ c #005858",
"# c #007070",
"$ c #484848",
"% c gray33",
"& c #646464",
"* c gray44",
"= c #7C7C7C",
"- c #BC0000",
"; c #D40000",
": c #EC0000",
"> c #FC2020",
", c #FC4040",
"< c #FC5454",
"1 c #FC7C7C",
"2 c #008484",
"3 c #009C9C",
"4 c #00B4B4",
"5 c #00CCCC",
"6 c #00E4E4",
"7 c #00FCFC",
"8 c #20FCFC",
"9 c #40FCFC",
"0 c #54FCFC",
"q c #5CFCFC",
"w c #7CFCF8",
"e c gray55",
"r c #989898",
"t c gray66",
"y c #B4B4B4",
"u c #FC9C9C",
"i c #9CFCFC",
"p c #B8FCFC",
"a c #C0C0C0",
"s c #D0D0D0",
"d c gainsboro",
"f c #D8FCFC",
"g c #ECECEC",
"h c gray99",
/* pixels */
"                                                                                                            ",
"                                                                                                            ",
"                                             55                                    pptt                     ",
"                                             55                                    pptt                     ",
"                                         eeee33eeee                      66        tthhtt                   ",
"                                         eeee33eeee                      66        tthhtt                   ",
"                                     ==wwppss@@tttttt==                  66          iihh                   ",
"                                     ==wwppss@@tttttt==                  66          iihh                   ",
"                                   ==wwppppgg00ttttttee&&                66        tt88hhtt                 ",
"                                   ==wwppppgg00ttttttee&&                66        tt88hhtt                 ",
"                                   yywwppss00dd==eeee2222              446644      8888pppp                 ",
"                                   yywwppss00dd==eeee2222              446644      8888pppp                 ",
"                                   yydddd00ddssaa==@@@@++              446644      8866pphh                 ",
"                                   yydddd00ddssaa==@@@@++              446644      8866pphh                 ",
"                                 ppee0000ff==ss%%yy==++++rr            446622    884466pphh                 ",
"                                 ppee0000ff==ss%%yy==++++rr            446622    884466pphh                 ",
"                                 550099iiff$$ssooyy3322##==          664466888888444466pphh                 ",
"                                 550099iiff$$ssooyy3322##==          664466888888444466pphh                 ",
"                                 rrgg99==ff$$ssooyy%%22##&&        66554466444444444466pphh                 ",
"                                 rrgg99==ff$$ssooyy%%22##&&        66554466444444444466pphh                 ",
"                                 ##gg99&&ff$$ssooyyoo22##++        55444466666666444466pphh                 ",
"                                 ##gg99&&ff$$ssooyyoo22##++        55444466666666444466pphh                 ",
"                                   ss99==ff$$ssooyy%%22==        6644334466222255664466pphh                 ",
"                                   ss99==ff$$ssooyy%%22==        6644334466222255664466pphh                 ",
"                                   ==ssiiff==ss%%yy3322==        5533224466443322445566pphh                 ",
"                                   ==ssiiff==ss%%yy3322==        5533224466443322445566pphh                 ",
"                                   $$==rryyddssaarrrr==$$        5522  4466444422226666pphh                 ",
"                                   $$==rryyddssaarrrr==$$        5522  4466444422226666pphh                 ",
"                                   $$ss==============%%$$        33    4466####33224466pphh                 ",
"                                   $$ss==============%%$$        33    4466####33224466pphh                 ",
"                         ==aaaaaassssrrsshhsssstt%%%%OOOO%%%%          4466##  ##223366pphh                 ",
"                         ==aaaaaassssrrsshhsssstt%%%%OOOO%%%%          4466##  ##223366pphh                 ",
"                   ==ddddaassiiiihhhhssrrrr==&&&&OOOOOO333333@@%%$$%%%%4466##    222266pppp                 ",
"                   ==ddddaassiiiihhhhssrrrr==&&&&OOOOOO333333@@%%$$%%%%4466##    222266pppp                 ",
"                 yyffff6644iiiihhhhffppggppppdd6655554433222222##$$####4466##      22pppptt                 ",
"                 yyffff6644iiiihhhhffppggppppdd6655554433222222##$$####4466##      22pppptt                 ",
"               ==gghhff6644gggghhffpppphhppgg444466555544332222##++33444466##      22pppp                   ",
"               ==gghhff6644gggghhffpppphhppgg444466555544332222##++33444466##      22pppp                   ",
"               yyffgg6644ggssaahhpppphhhh00dd3344665555443322####++22224466####    66pppp                   ",
"               yyffgg6644ggssaahhpppphhhh00dd3344665555443322####++22224466####    66pppp                   ",
"               yyffpp44gghh,,aaaaaaaahhhh00ss3344665555443322##@@++****4466####    ttpptt                   ",
"               yyffpp44gghh,,aaaaaaaahhhh00ss3344665555443322##@@++****4466####    ttpptt                   ",
"               77gg77gghh<<,,>>==aaaayyyyyyyyyy44445555443322##@@++&&&&4466####    ttpp                     ",
"               77gg77gghh<<,,>>==aaaayyyyyyyyyy44445555443322##@@++&&&&4466####    ttpp                     ",
"           yy77gg77gghh11<<,,>>::;;;;====rrrree@@444444443322@@OO++++++4466##@@    pptt                     ",
"           yy77gg77gghh11<<,,>>::;;;;====rrrree@@444444443322@@OO++++++4466##@@    pptt                     ",
"               ==%%gguu11<<,,>>::;;;;------rree@@##2222####@@@@oo++@@@@4466##@@@@                           ",
"               ==%%gguu11<<,,>>::;;;;------rree@@##2222####@@@@oo++@@@@4466##@@@@                           ",
"               tteegguu11<<,,>>::;;;;------rreeOOOO++++++++++OOXX++22444466##@@                             ",
"               tteegguu11<<,,>>::;;;;------rreeOOOO++++++++++OOXX++22444466##@@                             ",
"               ttppgguu11<<,,>>::;;;;------rree++++@@++++ooooXX..++22444466##@@                             ",
"               ttppgguu11<<,,>>::;;;;------rree++++@@++++ooooXX..++22444466##@@                             ",
"               ttppgguu11<<,,>>::;;;;------rree++@@22##++$$OOXX  ##22444466##@@                             ",
"               ttppgguu11<<,,>>::;;;;------rree++@@22##++$$OOXX  ##22444466##@@                             ",
"               ppppgguu11<<,,>>::;;;;------rreeOO@@22##@@$$OO++  ##22224466##22@@                           ",
"               ppppgguu11<<,,>>::;;;;------rreeOO@@22##@@$$OO++  ##22224466##22@@                           ",
"             pppp44ssuu11<<,,>>::;;;;------rreeOO@@22##@@$$OO++  224466wwww####@@                           ",
"             pppp44ssuu11<<,,>>::;;;;------rreeOO@@22##@@$$OO++  224466wwww####@@                           ",
"           pppp44ppssuu11<<,,>>::;;;;------rreeoo@@##@@@@$$++      44pppp4433##++@@                         ",
"           pppp44ppssuu11<<,,>>::;;;;------rreeoo@@##@@@@$$++      44pppp4433##++@@                         ",
"           pptt3377ssuu11<<,,>>::;;;;------rreeoo@@@@@@@@%%++      44wwww3333##++@@                         ",
"           pptt3377ssuu11<<,,>>::;;;;------rreeoo@@@@@@@@%%++      44wwww3333##++@@                         ",
"           sstt3333ssuu11<<,,>>::;;;;------rree++##33332222%%++    44ppww4433##++@@                         ",
"           sstt3333ssuu11<<,,>>::;;;;------rree++##33332222%%++    44ppww4433##++@@                         ",
"           sstt@@eessuu11<<,,>>::;;;;------rree++##44443322##@@++    ppww4433##++@@                         ",
"           sstt@@eessuu11<<,,>>::;;;;------rree++##44443322##@@++    ppww4433##++@@                         ",
"             ====@@ssuu11<<,,>>::;;;;------rree@@##44444433##@@++    444444++++@@                           ",
"             ====@@ssuu11<<,,>>::;;;;------rree@@##44444433##@@++    444444++++@@                           ",
"               ====ssuu11<<,,>>::;;;;------rree########@@@@++++      ########22                             ",
"               ====ssuu11<<,,>>::;;;;------rree########@@@@++++      ########22                             ",
"                   ssuu11<<,,>>::;;;;------rreeoooo++++++++++OO        22####                               ",
"                   ssuu11<<,,>>::;;;;------rreeoooo++++++++++OO        22####                               ",
"                     ss11<<,,>>::;;;;------rreeooOO$$@@@@@@++OO        4433##                               ",
"                     ss11<<,,>>::;;;;------rreeooOO$$@@@@@@++OO        4433##                               ",
"                     ss11<<,,>>::;;;;----==eeXXOO@@####&&@@++OO        4466##                               ",
"                     ss11<<,,>>::;;;;----==eeXXOO@@####&&@@++OO        4466##                               ",
"                     ssuu<<,,>>::;;;;----tteeXX$$##22##&&@@++OO        4466##                               ",
"                     ssuu<<,,>>::;;;;----tteeXX$$##22##&&@@++OO        4466##                               ",
"                       ss<<,,>>::;;;;--==eeoo++$$##22##&&@@++OO        5555##                               ",
"                       ss<<,,>>::;;;;--==eeoo++$$##22##&&@@++OO        5555##                               ",
"                         ss,,>>::;;;;==ee@@oo++$$##22##&&@@++OO        5555##                               ",
"                         ss,,>>::;;;;==ee@@oo++$$##22##&&@@++OO        5555##                               ",
"                           ss>>::;;ttee##@@oo++@@##22##&&@@++OO        5544@@                               ",
"                           ss>>::;;ttee##@@oo++@@##22##&&@@++OO        5544@@                               ",
"                             yyyyyy######@@oo++@@##22##&&@@++OO        5544@@                               ",
"                             yyyyyy######@@oo++@@##22##&&@@++OO        5544@@                               ",
"                             66554433####@@++++@@##222233@@++OO        5533@@                               ",
"                             66554433####@@++++@@##222233@@++OO        5533@@                               ",
"                             pppp553322##@@++++@@##223355##@@OO        4433@@                               ",
"                             pppp553322##@@++++@@##223355##@@OO        4433@@                               ",
"                             pp88663322####++OO##2244445533@@++++      4422++                               ",
"                             pp88663322####++OO##2244445533@@++++      4422++                               ",
"                           pp886655332222##@@OO224444556633##@@++      4422++                               ",
"                           pp886655332222##@@OO224444556633##@@++      4422++                               ",
"                           44222222222222##@@OO@@######@@@@@@++++    44wwww44##                             ",
"                           44222222222222##@@OO@@######@@@@@@++++    44wwww44##                             ",
"                             44####@@@@@@++++XX++++++++++++++++      44666644##                             ",
"                             44####@@@@@@++++XX++++++++++++++++      44666644##                             ",
"                               55442222####@@XX223333######@@          4422++                               ",
"                               55442222####@@XX223333######@@          4422++                               ",
"                               55qq55442222@@XX33555544####@@        44ww6644##                             ",
"                               55qq55442222@@XX33555544####@@        44ww6644##                             ",
"                               55qqhh552222@@XX336655ww####@@        44666644##                             ",
"                               55qqhh552222@@XX336655ww####@@        44666644##                             ",
"                               55qqhh6622##@@XX33555577##@@            4422++                               ",
"                               55qqhh6622##@@XX33555577##@@            4422++                               ",
"                               4455hhii22##@@XX2288pp22##@@          44ww6644##                             ",
"                               4455hhii22##@@XX2288pp22##@@          44ww6644##                             ",
"                                 55556622##@@XX22222244##@@          44666644##                             ",
"                                 55556622##@@XX22222244##@@          44666644##                             ",
"                                 555533####++oo22445522@@++            4422++                               ",
"                                 555533####++oo22445522@@++            4422++                               ",
"                                 448855##@@++oo22222233@@            44ww6644##                             ",
"                                 448855##@@++oo22222233@@            44ww6644##                             ",
"                                   6655##@@++oo##445522@@            44666644##                             ",
"                                   6655##@@++oo##445522@@            44666644##                             ",
"                                 5522@@++++++oo##22######@@            4422++                               ",
"                                 5522@@++++++oo##22######@@            4422++                               ",
"                               hhqq552222##++oo##3366663333@@        44ww6644##                             ",
"                               hhqq552222##++oo##3366663333@@        44ww6644##                             ",
"                             hhqqqq5533####++oo@@4466ppqq4433@@%%%%%%44666644##%%&&&&&&                     ",
"                             hhqqqq5533####++oo@@4466ppqq4433@@%%%%%%44666644##%%&&&&&&                     ",
"                           qqhhqq554433##@@++oo@@4455qqppqq5533@@oooooo4422++ooOOOO$$$$%%%%%%%%&&&&&&&&     ",
"                           qqhhqq554433##@@++oo@@4455qqppqq5533@@oooooo4422++ooOOOO$$$$%%%%%%%%&&&&&&&&     ",
"                         qqhhqq554433##@@++..oooo####5566ppqq55##........44##XXXXooooOOOOOO$$$$$$$$%%%%&&&& ",
"                         qqhhqq554433##@@++..oooo####5566ppqq55##........44##XXXXooooOOOOOO$$$$$$$$%%%%&&&& ",
"                         55553333####++..oooo%%&&&&%%oo##########OOOOOOOOOOOOOOOOOOOOOO$$$$$$%%%%&&&&&&&&&& ",
"                         55553333####++..oooo%%&&&&%%oo##########OOOOOOOOOOOOOOOOOOOOOO$$$$$$%%%%&&&&&&&&&& "
};
