/* XPM */
static char *accaed5a7cb64550e0bada3bc87bb248xX3mMeOT7WeMCZVV[] = {
/* columns rows colors chars-per-pixel */
"111 115 24 1 ",
"  c #000000",
". c #202020",
"X c #000070",
"o c #00007C",
"O c #484848",
"+ c gray33",
"@ c #646464",
"# c gray44",
"$ c #7C7C7C",
"% c #FC5C5C",
"& c #000088",
"* c #000098",
"= c #0000A4",
"- c #0000B0",
"; c #0000BC",
": c #0000FC",
"> c gray55",
", c #989898",
"< c #B4B4B4",
"1 c #FC9C9C",
"2 c #FCB8B8",
"3 c #D0D0D0",
"4 c gainsboro",
"5 c #ECECEC",
/* pixels */
"                                                                                                               ",
"                                                                                                               ",
"                                                                                                               ",
"                                                                                                               ",
"                                                                                                               ",
"                                                                                                               ",
"                                                                                                               ",
"                                                                                                               ",
"                                                                                                               ",
"                                                                                                               ",
"                                                                                                               ",
"                                                                                                               ",
"                                                                                                               ",
"                                                                                                               ",
"                                                                                                               ",
"                                                                                                               ",
"                                                                                                               ",
"                                                                                                               ",
"                                                                                                               ",
"                                                                                                               ",
"                                                                                                               ",
"                                                                                                               ",
"                                                                                                               ",
"                                                                                                               ",
"                                                                                                               ",
"                                                                                                               ",
"                                                                                                               ",
"                                                                                                               ",
"                                                                                                               ",
"                                                                                                               ",
"                                                                                                               ",
"                                                                                                               ",
"                                                                                                               ",
"                                                                                                               ",
"                                                                                                               ",
"                                                                                                               ",
"                                                                                                               ",
"                                                                                                               ",
"                                                                                                               ",
"                                                                                                               ",
"                                                                                                               ",
"                                                                                                               ",
"                                                                                                               ",
"                                                                                                               ",
"                                                                                                               ",
"                                                                                                               ",
"                                                                                                               ",
"                                                                                                               ",
"                                                                                                               ",
"                                                                                                               ",
"                                                                                                               ",
"                                                                                                               ",
"                                                                                                               ",
"                                                                                                               ",
"                                                                                                               ",
"                                                                                                               ",
"                                                                                                               ",
"                                                                                                               ",
"                                                                                                               ",
"                                                                                                               ",
"                                                                                                               ",
"                                                                                                               ",
"                                                                                                               ",
"                                                                                                               ",
"                                                                                                               ",
"                                                                                                               ",
"                                                                                                               ",
"                                                                                                               ",
"                                                                                                               ",
"                                                                                                               ",
"                                                                                                               ",
"                                                                                                               ",
"                                                                                                               ",
"                                                                                                               ",
"                                                                                                               ",
"                                                                                                               ",
"                                                                                                               ",
"                                                                                                               ",
"                                                                                                               ",
"                                                                                                               ",
"                                                                                                               ",
"                                                                                                               ",
"                                                                                                               ",
"                                                                                                               ",
"                                                                                                               ",
"                                                                                                               ",
"                                                                                                               ",
"                                                                                                               ",
"                                                                                                               ",
"                                                                                                               ",
"                                                                                                               ",
"                                                                                                               ",
"                                                                                                               ",
"                                                                                                               ",
"                                                                                                               ",
"                                     33555555555555555555555555555555555533                                    ",
"                                     33555555555555555555555555555555555533                                    ",
"                                   335555555555555522%%%%%%225555555555555533                                  ",
"                                   335555555555555522%%%%%%225555555555555533                                  ",
"                                 33555555555511%%%%%%%%%%%%%%%%%%11555555555533                                ",
"                                 33555555555511%%%%%%%%%%%%%%%%%%11555555555533                                ",
"                               33555555555511%%%%%%%%%%%%%%%%%%%%%%11555555555533                              ",
"                               33555555555511%%%%%%%%%%%%%%%%%%%%%%11555555555533                              ",
"                             3355555555555555555511%%%%%%%%%%1155555555555555555533                            ",
"                             3355555555555555555511%%%%%%%%%%1155555555555555555533                            ",
"                             4444444444444444444444444444444444444444444444444444<<                            ",
"                             4444444444444444444444444444444444444444444444444444<<                            ",
"                             <<<<<<<<<<<<<<<<<<<<<<++....OO##<<<<<<<<<<<<<<<<<<<<>>@@@@@@@@                    ",
"                             <<<<<<<<<<<<<<<<<<<<<<++....OO##<<<<<<<<<<<<<<<<<<<<>>@@@@@@@@                    ",
"                             ,,,,,,,,,,,,,,,,,,,,,,,,$$######,,,,,,,,,,,,,,,,,,,,##++++@@@@@@@@                ",
"                             ,,,,,,,,,,,,,,,,,,,,,,,,$$######,,,,,,,,,,,,,,,,,,,,##++++@@@@@@@@                ",
"                             ::;;;;;;;;;;----------============================**&&OOOO++@@@@@@@@@@            ",
"                             ::;;;;;;;;;;----------============================**&&OOOO++@@@@@@@@@@            ",
"                             --&&&&&&&&&&&&&&&&&&&&&&ooooooooooooooXXXXXXXXXXXXXXXXOOOOOO++@@@@@@@@            ",
"                             --&&&&&&&&&&&&&&&&&&&&&&ooooooooooooooXXXXXXXXXXXXXXXXOOOOOO++@@@@@@@@            "
};
