/* XPM */
static char *_31931a92848423e8674a4416cfcfabdAkyZEXlBZsx1qdOq[] = {
/* columns rows colors chars-per-pixel */
"108 91 36 1 ",
"  c #000000",
". c black",
"X c #744C28",
"o c #005858",
"O c #007070",
"+ c gray33",
"@ c #646464",
"# c gray44",
"$ c #7C7C7C",
"% c #9C4C00",
"& c #885830",
"* c #9C6038",
"= c #CC6000",
"- c #E46C00",
"; c #A86840",
": c #BC7848",
"> c #C87C4C",
", c #048800",
"< c #049800",
"1 c #04B000",
"2 c #04BC00",
"3 c #00D400",
"4 c #00FC00",
"5 c #FC8820",
"6 c #008484",
"7 c #009C9C",
"8 c #00B4B4",
"9 c #00CCCC",
"0 c #00E4E4",
"q c #00FCFC",
"w c gray55",
"e c #B4B4B4",
"r c #C0C0C0",
"t c #D0D0D0",
"y c gainsboro",
"u c #ECECEC",
/* pixels */
"                                                                                                            ",
"                                                                                                            ",
"                                                                                                            ",
"                                                                                                            ",
"                                                                                                            ",
"                                                                                                            ",
"                                                                                                            ",
"                                                                                                            ",
"                                                                                                            ",
"                                                                                                            ",
"                                                                                                            ",
"                                                                                                            ",
"                                                                                                            ",
"                                                                                                            ",
"                                                                                                            ",
"                                                                                                            ",
"                                                                                                            ",
"                                                                                                            ",
"                                                                                                            ",
"                                                                                                            ",
"                                                                                                            ",
"                                                                                                            ",
"                                                                                                            ",
"                                                                                                            ",
"                                                                                                            ",
"                                                                                                            ",
"                                                                                                            ",
"                                                                                                            ",
"                                                                                                            ",
"                                                                                                            ",
"                                                                                                            ",
"                                                                                                            ",
"                                                                                                            ",
"                                                                                                            ",
"                                                                                                            ",
"                                                                                                            ",
"                                                                                                            ",
"                                                                                                            ",
"                                                                                                            ",
"                                                                                                            ",
"                                                                                                            ",
"                                                                                                            ",
"                                                                                                            ",
"                                                                                                            ",
"                                                                                                            ",
"                                                                                                            ",
"                                                                                                            ",
"                                                                                                            ",
"                                                                                                            ",
"                                                                                                            ",
"                                                                                                            ",
"                                                                                                            ",
"                                                                                                            ",
"                                                                                                            ",
"                                                                                                            ",
"                                                                                                            ",
"                                                                                                            ",
"                                                                                                            ",
"                                                                                                            ",
"                                                                                                            ",
"                                                                                                            ",
"                                                                                                            ",
"                                                                                                            ",
"                                                                                                            ",
"                                                                                                            ",
"                                                                                                            ",
"                                                                                                            ",
"                                                                                                            ",
"                                                                                                            ",
"                                                                                                            ",
"                                                                                                            ",
"                                                                                                            ",
"                                                                                                            ",
"                                        ::------::::                                                        ",
"                                        ::------::::                                                        ",
"                                      ----5555>>========::            yy                                    ",
"                                      ----5555>>========::            yy                                    ",
"                                      --555555>>;;******======ttttttyy##ee                                  ",
"                                      --555555>>;;******======ttttttyy##ee                                  ",
"                              888888ttuuuutt--;;;;**********%%wwwwwwwwww$$                                  ",
"                              888888ttuuuutt--;;;;**********%%wwwwwwwwww$$                                  ",
"                          8899qqqqttuuttuurrrr&&&&&&&&&&&&<<333333,,,,....                                  ",
"                          8899qqqqttuuttuurrrr&&&&&&&&&&&&<<333333,,,,....                                  ",
"                        8899qq8866ttttrrrrwwwwXXXXXXXXXXXXXX2222441144....77oo                              ",
"                        8899qq8866ttttrrrrwwwwXXXXXXXXXXXXXX2222441144....77oo                              ",
"                        889900qqrruuuuuurrttwwww++<<1133333344,,,,,,,,..7777OOoo@@@@                        ",
"                        889900qqrruuuuuurrttwwww++<<1133333344,,,,,,,,..7777OOoo@@@@                        ",
"                          889999999988887777777777666666666666OOOOOOOO66OOOOoo++++@@@@                      ",
"                          889999999988887777777777666666666666OOOOOOOO66OOOOoo++++@@@@                      ",
"                                oooooooooooooooooooooooooooooooooooooooooo++++++@@@@                        ",
"                                oooooooooooooooooooooooooooooooooooooooooo++++++@@@@                        "
};
